<svg width="343" height="109" viewBox="0 0 343 109" fill="none" xmlns="http://www.w3.org/2000/svg">
<path d="M34.736 109C31.792 109 28.944 107.784 26.192 105.352C23.504 102.92 21.232 99.4 19.376 94.792C17.584 90.184 16.528 84.616 16.208 78.088C14.224 78.28 12.4 78.376 10.736 78.376C7.024 78.376 4.304 77.896 2.576 76.936C0.912 75.976 0.0799999 74.728 0.0799999 73.192C0.0799999 71.656 0.816 69.96 2.288 68.104C3.76 66.248 5.808 64.392 8.432 62.536C11.056 60.616 14.128 58.888 17.648 57.352C18.864 50.824 20.816 43.784 23.504 36.232C26.256 28.616 29.936 20.552 34.544 12.04C34.992 11.208 35.664 10.792 36.56 10.792C37.136 10.792 37.648 10.984 38.096 11.368C38.544 11.752 38.768 12.264 38.768 12.904C38.768 13.224 38.672 13.64 38.48 14.152C34.384 22.408 30.96 29.992 28.208 36.904C25.52 43.752 23.408 50.024 21.872 55.72C24.752 54.632 27.824 53.736 31.088 53.032C34.352 52.328 37.68 51.912 41.072 51.784C41.968 51.784 42.416 51.912 42.416 52.168C42.416 52.424 42.096 52.68 41.456 52.936C40.88 53.128 39.888 53.256 38.48 53.32C35.344 53.512 32.336 53.96 29.456 54.664C26.64 55.304 23.984 56.104 21.488 57.064C20.528 60.776 19.792 64.232 19.28 67.432C18.768 70.568 18.448 73.48 18.32 76.168C24.912 74.76 30.896 72.712 36.272 70.024C41.712 67.272 46.512 64.104 50.672 60.52C54.832 56.936 58.32 53.224 61.136 49.384C62.928 46.952 64.208 44.808 64.976 42.952C65.808 41.032 66.224 39.368 66.224 37.96C66.224 35.912 65.584 34.312 64.304 33.16C63.024 31.944 61.328 31.08 59.216 30.568C57.104 29.992 54.8 29.704 52.304 29.704C49.68 29.704 47.024 29.96 44.336 30.472C41.648 30.92 39.216 31.56 37.04 32.392C36.528 32.52 36.176 32.584 35.984 32.584C35.152 32.584 34.736 32.296 34.736 31.72C34.736 31.144 35.088 30.696 35.792 30.376C43.664 25.896 49.264 21.832 52.592 18.184C55.92 14.536 57.584 11.464 57.584 8.96799C57.584 6.792 56.56 5.128 54.512 3.976C52.528 2.76 49.904 2.152 46.64 2.152C44.08 2.152 41.2 2.568 38 3.4C34.8 4.232 31.504 5.576 28.112 7.432C25.296 8.968 22.736 10.792 20.432 12.904C18.192 14.952 16.272 17.096 14.672 19.336C13.136 21.512 11.984 23.592 11.216 25.576C10.448 27.496 10.16 29.128 10.352 30.472C10.352 30.6 10.352 30.76 10.352 30.952C10.416 31.08 10.448 31.208 10.448 31.336C10.448 32.936 9.968 33.736 9.008 33.736C8.56 33.736 8.08 33.416 7.568 32.776C7.12 32.136 6.896 31.176 6.896 29.896C6.896 27.976 7.472 25.928 8.624 23.752C9.84 21.576 11.44 19.4 13.424 17.224C15.472 14.984 17.744 12.904 20.24 10.984C22.736 9 25.328 7.304 28.016 5.89599C31.472 4.04 34.864 2.664 38.192 1.768C41.584 0.871996 44.688 0.423996 47.504 0.423996C51.408 0.423996 54.576 1.192 57.008 2.72799C59.44 4.264 60.656 6.408 60.656 9.16C60.656 11.72 59.408 14.696 56.912 18.088C54.416 21.48 50.224 25.224 44.336 29.32C46.32 29 48.176 28.776 49.904 28.648C51.632 28.456 53.232 28.36 54.704 28.36C60.208 28.36 64.176 29.288 66.608 31.144C69.104 32.936 70.352 35.272 70.352 38.152C70.352 40.264 69.744 42.568 68.528 45.064C67.376 47.496 65.744 50.024 63.632 52.648C60.56 56.424 56.688 60.072 52.016 63.592C47.408 67.112 42.224 70.152 36.464 72.712C30.768 75.272 24.688 77 18.224 77.896C18.096 83.592 18.608 88.296 19.76 92.008C20.976 95.72 22.512 98.6 24.368 100.648C26.224 102.76 28.08 104.232 29.936 105.064C31.792 105.96 33.328 106.408 34.544 106.408C35.44 106.408 36.048 106.248 36.368 105.928C36.624 105.608 37.008 105.448 37.52 105.448C38.032 105.448 38.512 105.64 38.96 106.024C39.408 106.408 39.632 106.824 39.632 107.272C39.632 107.656 39.408 107.944 38.96 108.136C37.552 108.712 36.144 109 34.736 109ZM11.12 77.128C11.824 77.128 12.592 77.064 13.424 76.936C14.256 76.872 15.152 76.776 16.112 76.648C16.048 73.96 16.112 71.144 16.304 68.2C16.496 65.256 16.848 62.184 17.36 58.984C13.264 61.096 10.032 63.464 7.664 66.088C5.296 68.648 4.112 70.92 4.112 72.904C4.112 74.12 4.688 75.112 5.84 75.88C6.992 76.712 8.752 77.128 11.12 77.128ZM79.9775 74.248C77.6735 74.248 75.6575 72.904 73.9295 70.216C72.2655 67.464 71.4335 63.144 71.4335 57.256C71.4335 53.416 71.9135 50.344 72.8735 48.04C73.8335 45.672 75.0175 43.944 76.4255 42.856C77.8335 41.768 79.1775 41.224 80.4575 41.224C81.7375 41.224 82.8255 41.672 83.7215 42.568C84.6175 43.4 85.0655 44.616 85.0655 46.216C85.0655 47.752 84.6175 49.384 83.7215 51.112C82.8255 52.776 81.7375 54.312 80.4575 55.72C79.2415 57.064 78.0255 57.96 76.8095 58.408C76.5535 58.536 76.2335 58.6 75.8495 58.6C75.5935 58.6 75.4655 58.504 75.4655 58.312C75.4655 57.8 75.9775 57.224 77.0015 56.584C78.2815 55.688 79.4975 54.344 80.6495 52.552C81.8015 50.696 82.3775 49.064 82.3775 47.656C82.3775 46.824 82.1855 46.184 81.8015 45.736C81.4175 45.224 80.9695 44.968 80.4575 44.968C79.4975 44.968 78.4415 45.736 77.2895 47.272C76.2015 48.744 75.4015 51.304 74.8895 54.952C74.7615 55.976 74.6335 56.968 74.5055 57.928C74.4415 58.824 74.4095 59.72 74.4095 60.616C74.4095 64.2 74.9535 67.016 76.0415 69.064C77.1295 71.048 78.5695 72.04 80.3615 72.04C81.8975 72.04 83.6255 71.144 85.5455 69.352C87.4655 67.496 89.3535 64.616 91.2095 60.712C91.6575 59.688 92.1695 59.176 92.7455 59.176C93.1295 59.176 93.3215 59.432 93.3215 59.944C93.3215 60.392 93.1935 60.872 92.9375 61.384C91.2735 65.48 89.2575 68.648 86.8895 70.888C84.5215 73.128 82.2175 74.248 79.9775 74.248ZM105.153 88.264C104.321 88.264 103.521 87.944 102.753 87.304C102.049 86.664 101.441 86.024 100.929 85.384C98.8808 83.016 97.1528 79.88 95.7448 75.976C94.4008 72.072 93.3768 67.784 92.6728 63.112C91.9688 58.376 91.6168 53.576 91.6168 48.712C91.6168 44.168 91.9048 39.752 92.4808 35.464C93.1208 31.176 94.0808 27.272 95.3608 23.752C96.6408 20.232 98.2408 17.416 100.161 15.304C102.657 12.488 105.057 11.08 107.361 11.08C108.769 11.08 109.889 11.72 110.721 13C111.617 14.216 112.065 16.168 112.065 18.856C112.065 21.416 111.553 24.68 110.529 28.648C109.569 32.552 107.905 37.224 105.537 42.664C104.705 44.456 103.809 46.248 102.849 48.04C101.953 49.832 100.993 51.72 99.9688 53.704C99.5848 54.472 99.2648 54.856 99.0088 54.856C98.8808 54.856 98.8168 54.728 98.8168 54.472C98.8168 53.96 99.0408 53.288 99.4888 52.456C105.313 41.512 108.225 30.632 108.225 19.816C108.225 15.528 107.329 13.384 105.537 13.384C104.257 13.384 102.753 14.632 101.025 17.128C98.6568 20.648 97.0248 24.84 96.1288 29.704C95.2328 34.504 94.7848 39.368 94.7848 44.296C94.7848 48.008 94.9448 51.624 95.2648 55.144C95.5848 58.6 95.9688 61.736 96.4168 64.552C96.6088 65.768 96.8968 67.4 97.2808 69.448C97.6648 71.496 98.1768 73.64 98.8168 75.88C99.4568 78.184 100.161 80.264 100.929 82.12C101.761 84.04 102.657 85.416 103.617 86.248C103.873 86.44 104.129 86.632 104.385 86.824C104.705 87.08 105.057 87.24 105.441 87.304C106.017 87.304 106.305 87.464 106.305 87.784C106.305 88.104 105.921 88.264 105.153 88.264ZM115.134 74.248C112.83 74.248 110.814 72.904 109.086 70.216C107.422 67.464 106.59 63.144 106.59 57.256C106.59 53.416 107.07 50.344 108.03 48.04C108.99 45.672 110.174 43.944 111.582 42.856C112.99 41.768 114.334 41.224 115.614 41.224C116.894 41.224 117.982 41.672 118.878 42.568C119.774 43.4 120.222 44.616 120.222 46.216C120.222 47.752 119.774 49.384 118.878 51.112C117.982 52.776 116.894 54.312 115.614 55.72C114.398 57.064 113.182 57.96 111.966 58.408C111.71 58.536 111.39 58.6 111.006 58.6C110.75 58.6 110.622 58.504 110.622 58.312C110.622 57.8 111.134 57.224 112.158 56.584C113.438 55.688 114.654 54.344 115.806 52.552C116.958 50.696 117.534 49.064 117.534 47.656C117.534 46.824 117.342 46.184 116.958 45.736C116.574 45.224 116.126 44.968 115.614 44.968C114.654 44.968 113.598 45.736 112.446 47.272C111.358 48.744 110.558 51.304 110.046 54.952C109.918 55.976 109.79 56.968 109.662 57.928C109.598 58.824 109.566 59.72 109.566 60.616C109.566 64.2 110.11 67.016 111.198 69.064C112.286 71.048 113.726 72.04 115.518 72.04C117.054 72.04 118.782 71.144 120.702 69.352C122.622 67.496 124.51 64.616 126.366 60.712C126.814 59.688 127.326 59.176 127.902 59.176C128.286 59.176 128.478 59.432 128.478 59.944C128.478 60.392 128.35 60.872 128.094 61.384C126.43 65.48 124.414 68.648 122.046 70.888C119.678 73.128 117.374 74.248 115.134 74.248ZM126.389 70.696C125.813 70.696 125.621 70.344 125.813 69.64C126.581 66.568 127.829 63.784 129.557 61.288C131.349 58.728 133.461 56.296 135.893 53.992C138.389 51.688 141.045 49.352 143.861 46.984C142.773 47.112 141.877 47.272 141.173 47.464C140.469 47.656 139.381 47.752 137.909 47.752C136.629 47.752 135.253 47.656 133.781 47.464C132.373 47.208 131.157 46.824 130.133 46.312C129.109 45.8 128.597 45.064 128.597 44.104C128.597 43.336 128.789 42.696 129.173 42.184C129.621 41.672 130.101 41.192 130.613 40.744C130.933 40.424 131.221 40.264 131.477 40.264C131.733 40.264 131.861 40.424 131.861 40.744C131.861 41.128 131.669 41.512 131.285 41.896C130.773 42.408 130.517 42.856 130.517 43.24C130.517 43.88 131.093 44.36 132.245 44.68C133.461 44.936 134.901 45.064 136.565 45.064C138.485 45.064 140.469 44.904 142.517 44.584C144.629 44.264 146.293 43.88 147.509 43.432C148.277 43.112 148.821 42.856 149.141 42.664C149.525 42.408 149.845 42.28 150.101 42.28C150.613 42.28 151.029 42.568 151.349 43.144C151.733 43.72 151.925 44.328 151.925 44.968C151.925 45.736 151.669 46.248 151.157 46.504C148.021 48.36 144.917 50.248 141.845 52.168C138.773 54.024 136.053 56.2 133.685 58.696C131.317 61.192 129.557 64.328 128.405 68.104C129.429 67.464 130.805 66.76 132.533 65.992C134.325 65.16 136.213 64.456 138.197 63.88C140.245 63.24 142.101 62.92 143.765 62.92C145.813 62.92 147.093 63.304 147.605 64.072C148.181 64.776 148.469 65.416 148.469 65.992C148.469 66.504 148.437 67.016 148.373 67.528C148.373 67.976 148.309 68.36 148.181 68.68C147.925 69.256 147.605 69.544 147.221 69.544C146.965 69.544 146.933 69.352 147.125 68.968C147.253 68.776 147.349 68.616 147.413 68.488C147.477 68.296 147.509 68.072 147.509 67.816C147.509 66.984 146.773 66.44 145.301 66.184C143.829 65.928 142.357 65.8 140.885 65.8C138.901 65.8 136.693 66.248 134.261 67.144C131.893 67.976 129.941 68.84 128.405 69.736C127.189 70.376 126.517 70.696 126.389 70.696ZM154.669 72.232C153.517 72.232 152.685 71.752 152.173 70.792C151.661 69.768 151.405 68.584 151.405 67.24C151.405 65.512 151.693 63.496 152.269 61.192C152.909 58.888 153.741 56.52 154.765 54.088C155.789 51.592 156.941 49.32 158.221 47.272C159.565 45.16 160.973 43.464 162.445 42.184C163.917 40.84 165.357 40.168 166.765 40.168C168.045 40.168 169.133 40.744 170.029 41.896C170.989 42.984 171.469 44.232 171.469 45.64C171.469 46.472 171.341 47.176 171.085 47.752C170.829 48.264 170.541 48.52 170.221 48.52C169.965 48.52 169.741 48.328 169.549 47.944C168.909 46.472 168.205 45.416 167.437 44.776C166.733 44.136 165.997 43.816 165.229 43.816C163.949 43.816 162.669 44.552 161.389 46.024C160.173 47.432 159.181 49.064 158.413 50.92C157.773 52.328 157.165 54.024 156.589 56.008C156.077 57.928 155.629 59.848 155.245 61.768C154.925 63.624 154.765 65.16 154.765 66.376C154.765 68.552 155.277 69.64 156.301 69.64C157.581 69.64 159.213 68.232 161.197 65.416C162.669 63.368 163.981 61 165.133 58.312C166.349 55.624 167.373 53.288 168.205 51.304C168.525 50.664 168.877 50.248 169.261 50.056C169.645 49.864 169.997 49.768 170.317 49.768C171.085 49.768 171.565 50.088 171.757 50.728C172.013 51.368 172.141 51.912 172.141 52.36C172.141 54.024 171.981 55.528 171.661 56.872C171.341 58.152 171.181 59.72 171.181 61.576C171.181 62.92 171.277 64.168 171.469 65.32C171.725 66.408 172.141 66.952 172.717 66.952C173.421 66.952 174.317 66.056 175.405 64.264C175.661 63.752 176.045 63.496 176.557 63.496C177.133 63.496 177.421 63.784 177.421 64.36C177.421 65.192 176.845 66.088 175.693 67.048C174.541 67.944 173.389 68.392 172.237 68.392C170.701 68.392 169.613 67.752 168.973 66.472C167.885 64.36 167.341 62.472 167.341 60.808C167.341 59.08 167.309 57.896 167.245 57.256C166.925 58.024 166.317 59.24 165.421 60.904C164.525 62.504 163.469 64.2 162.253 65.992C161.037 67.72 159.757 69.192 158.413 70.408C157.069 71.624 155.821 72.232 154.669 72.232ZM220.833 88.744C218.785 88.744 216.673 88.136 214.497 86.92C212.385 85.704 210.305 83.752 208.257 81.064C206.657 78.888 205.473 76.36 204.705 73.48C203.937 70.664 203.553 67.88 203.553 65.128C203.553 63.72 203.649 62.344 203.841 61C204.033 59.528 204.417 57.864 204.993 56.008C205.633 54.152 206.273 52.616 206.913 51.4C207.105 51.016 207.393 50.6 207.777 50.152C208.161 49.704 208.449 49.48 208.641 49.48C208.705 49.48 208.737 49.512 208.737 49.576C208.737 49.64 208.449 50.312 207.873 51.592C206.273 54.792 205.473 58.344 205.473 62.248C205.473 65.768 206.017 69.224 207.105 72.616C208.257 75.944 209.729 78.824 211.521 81.256C213.249 83.56 214.945 85.224 216.609 86.248C218.273 87.272 219.905 87.784 221.505 87.784C223.809 87.784 225.953 86.824 227.937 84.904C229.921 83.048 231.585 80.648 232.929 77.704C233.889 75.72 234.689 73.128 235.329 69.928C235.969 66.664 236.481 63.016 236.865 58.984C237.249 54.952 237.409 50.824 237.345 46.6V45.736C235.105 46.696 232.929 47.848 230.817 49.192C228.769 50.472 226.785 51.912 224.865 53.512C224.673 53.704 224.481 53.8 224.289 53.8C223.905 53.8 223.585 53.576 223.329 53.128C223.073 52.616 222.945 52.136 222.945 51.688C222.945 50.92 223.169 50.408 223.617 50.152C225.793 48.488 228.001 47.112 230.241 46.024C232.545 44.936 234.913 44.072 237.345 43.432C237.281 39.272 236.897 35.208 236.193 31.24C235.553 27.272 234.689 23.592 233.601 20.2C232.577 16.808 231.425 13.928 230.145 11.56L230.049 11.464C225.761 11.528 221.601 11.976 217.569 12.808C213.601 13.576 210.049 14.76 206.913 16.36C203.777 17.896 201.281 19.88 199.425 22.312C197.633 24.68 196.737 27.528 196.737 30.856C196.737 32.264 196.865 33.576 197.121 34.792C197.441 35.944 197.953 36.936 198.657 37.768C199.041 38.152 199.233 38.504 199.233 38.824C199.233 39.208 199.041 39.4 198.657 39.4C198.273 39.4 197.889 39.176 197.505 38.728C196.417 37.448 195.713 36.04 195.393 34.504C195.009 32.968 194.817 31.432 194.817 29.896C194.817 26.76 195.521 24.008 196.929 21.64C198.401 19.272 200.321 17.256 202.689 15.592C205.121 13.864 207.777 12.488 210.657 11.464C213.537 10.376 216.449 9.54399 219.393 8.96799C222.401 8.39199 225.153 8.07199 227.649 8.008C226.753 6.984 225.921 6.376 225.153 6.184C224.449 5.928 223.809 5.832 223.233 5.89599C222.721 5.89599 222.273 5.768 221.889 5.512C221.633 5.32 221.505 5.096 221.505 4.84C221.505 4.2 222.337 3.88 224.001 3.88C225.217 3.88 226.593 4.2 228.129 4.84C229.729 5.416 231.169 6.472 232.449 8.008C235.393 8.07199 238.689 8.35999 242.337 8.872C245.985 9.384 249.569 10.216 253.089 11.368C256.609 12.52 259.681 14.088 262.305 16.072C264.929 17.992 266.657 20.456 267.489 23.464C267.553 23.656 267.585 23.944 267.585 24.328C267.585 24.904 267.425 25.192 267.105 25.192C266.785 25.192 266.465 24.808 266.145 24.04C265.441 21.48 263.553 19.304 260.481 17.512C257.409 15.72 253.601 14.312 249.057 13.288C244.577 12.2 239.809 11.592 234.753 11.464C236.097 14.024 237.153 17.032 237.921 20.488C238.753 23.944 239.361 27.592 239.745 31.432C240.193 35.208 240.481 38.952 240.609 42.664C242.465 42.28 244.353 42.024 246.273 41.896C248.193 41.704 250.145 41.608 252.129 41.608C252.641 41.608 253.089 41.704 253.473 41.896C253.857 42.024 254.049 42.152 254.049 42.28C254.049 42.664 253.249 42.856 251.649 42.856C247.873 42.856 244.193 43.4 240.609 44.488C240.609 45.128 240.609 45.8 240.609 46.504C240.673 47.208 240.705 47.88 240.705 48.52C240.705 51.464 240.609 54.152 240.417 56.584C240.289 58.952 240.161 60.872 240.033 62.344C239.521 67.08 238.337 71.464 236.481 75.496C234.625 79.528 232.321 82.728 229.569 85.096C226.881 87.528 223.969 88.744 220.833 88.744ZM257.419 72.232C256.267 72.232 255.435 71.752 254.923 70.792C254.411 69.768 254.155 68.584 254.155 67.24C254.155 65.512 254.443 63.496 255.019 61.192C255.659 58.888 256.491 56.52 257.515 54.088C258.539 51.592 259.691 49.32 260.971 47.272C262.315 45.16 263.723 43.464 265.195 42.184C266.667 40.84 268.107 40.168 269.515 40.168C270.795 40.168 271.883 40.744 272.779 41.896C273.739 42.984 274.219 44.232 274.219 45.64C274.219 46.472 274.091 47.176 273.835 47.752C273.579 48.264 273.291 48.52 272.971 48.52C272.715 48.52 272.491 48.328 272.299 47.944C271.659 46.472 270.955 45.416 270.187 44.776C269.483 44.136 268.747 43.816 267.979 43.816C266.699 43.816 265.419 44.552 264.139 46.024C262.923 47.432 261.931 49.064 261.163 50.92C260.523 52.328 259.915 54.024 259.339 56.008C258.827 57.928 258.379 59.848 257.995 61.768C257.675 63.624 257.515 65.16 257.515 66.376C257.515 68.552 258.027 69.64 259.051 69.64C260.331 69.64 261.963 68.232 263.947 65.416C265.419 63.368 266.731 61 267.883 58.312C269.099 55.624 270.123 53.288 270.955 51.304C271.275 50.664 271.627 50.248 272.011 50.056C272.395 49.864 272.747 49.768 273.067 49.768C273.835 49.768 274.315 50.088 274.507 50.728C274.763 51.368 274.891 51.912 274.891 52.36C274.891 54.024 274.731 55.528 274.411 56.872C274.091 58.152 273.931 59.72 273.931 61.576C273.931 62.92 274.027 64.168 274.219 65.32C274.475 66.408 274.891 66.952 275.467 66.952C276.171 66.952 277.067 66.056 278.155 64.264C278.411 63.752 278.795 63.496 279.307 63.496C279.883 63.496 280.171 63.784 280.171 64.36C280.171 65.192 279.595 66.088 278.443 67.048C277.291 67.944 276.139 68.392 274.987 68.392C273.451 68.392 272.363 67.752 271.723 66.472C270.635 64.36 270.091 62.472 270.091 60.808C270.091 59.08 270.059 57.896 269.995 57.256C269.675 58.024 269.067 59.24 268.171 60.904C267.275 62.504 266.219 64.2 265.003 65.992C263.787 67.72 262.507 69.192 261.163 70.408C259.819 71.624 258.571 72.232 257.419 72.232ZM287.629 88.36C286.989 88.36 286.317 87.944 285.613 87.112C284.973 86.344 284.365 85.256 283.789 83.848C282.829 81.544 282.157 79.112 281.773 76.552C281.389 74.056 281.197 71.528 281.197 68.968C281.197 66.152 281.389 63.4 281.773 60.712C282.157 58.024 282.573 55.592 283.021 53.416C283.341 51.88 283.725 50.248 284.173 48.52C284.621 46.792 285.037 45.416 285.421 44.392C285.037 44.456 284.429 44.68 283.597 45.064C282.765 45.448 281.901 45.832 281.005 46.216C280.173 46.6 279.437 46.792 278.797 46.792C277.837 46.792 277.357 46.248 277.357 45.16C277.357 44.584 277.549 44.072 277.933 43.624C278.381 43.176 278.925 42.824 279.565 42.568C280.845 41.992 282.253 41.576 283.789 41.32C285.325 41 286.349 40.68 286.861 40.36L289.357 34.024C289.613 33.384 290.061 32.36 290.701 30.952C291.405 29.48 292.205 27.912 293.101 26.248C294.061 24.584 294.989 23.08 295.885 21.736C296.589 20.712 297.261 19.912 297.901 19.336C298.541 18.696 299.245 18.376 300.013 18.376C301.165 18.376 301.741 18.824 301.741 19.72C301.741 20.232 301.517 21 301.069 22.024C300.685 23.048 299.949 24.392 298.861 26.056C297.645 27.976 296.397 29.896 295.117 31.816C293.901 33.672 292.845 35.624 291.949 37.672C291.885 37.928 291.725 38.344 291.469 38.92C291.277 39.432 291.117 39.752 290.989 39.88L292.909 39.592C293.421 39.528 293.997 39.496 294.637 39.496C295.277 39.432 295.981 39.4 296.749 39.4C297.837 39.4 298.861 39.464 299.821 39.592C300.845 39.656 301.677 39.816 302.317 40.072C302.637 40.2 302.925 40.36 303.181 40.552C303.501 40.68 303.661 40.808 303.661 40.936C303.661 41.192 302.829 41.32 301.165 41.32C300.205 41.32 298.829 41.48 297.037 41.8C295.309 42.12 293.325 42.632 291.085 43.336C289.997 43.656 289.261 44.104 288.877 44.68C288.493 45.256 287.981 46.632 287.341 48.808C286.381 52.264 285.613 55.592 285.037 58.792C284.461 61.928 284.013 65.128 283.693 68.392C283.629 69.032 283.565 69.704 283.501 70.408C283.501 71.112 283.501 71.88 283.501 72.712C283.501 74.888 283.693 77.16 284.077 79.528C284.525 81.896 285.165 83.944 285.997 85.672C286.189 86.056 286.381 86.408 286.573 86.728C286.829 87.048 287.117 87.272 287.437 87.4C287.885 87.592 288.109 87.816 288.109 88.072C288.109 88.264 287.949 88.36 287.629 88.36ZM298.762 72.232C297.61 72.232 296.778 71.752 296.266 70.792C295.754 69.768 295.498 68.584 295.498 67.24C295.498 65.512 295.786 63.496 296.362 61.192C297.002 58.888 297.834 56.52 298.858 54.088C299.882 51.592 301.034 49.32 302.314 47.272C303.658 45.16 305.066 43.464 306.538 42.184C308.01 40.84 309.45 40.168 310.858 40.168C312.138 40.168 313.226 40.744 314.122 41.896C315.082 42.984 315.562 44.232 315.562 45.64C315.562 46.472 315.434 47.176 315.178 47.752C314.922 48.264 314.634 48.52 314.314 48.52C314.058 48.52 313.834 48.328 313.642 47.944C313.002 46.472 312.298 45.416 311.53 44.776C310.826 44.136 310.09 43.816 309.322 43.816C308.042 43.816 306.762 44.552 305.482 46.024C304.266 47.432 303.274 49.064 302.506 50.92C301.866 52.328 301.258 54.024 300.682 56.008C300.17 57.928 299.722 59.848 299.338 61.768C299.018 63.624 298.858 65.16 298.858 66.376C298.858 68.552 299.37 69.64 300.394 69.64C301.674 69.64 303.306 68.232 305.29 65.416C306.762 63.368 308.074 61 309.226 58.312C310.442 55.624 311.466 53.288 312.298 51.304C312.618 50.664 312.97 50.248 313.354 50.056C313.738 49.864 314.09 49.768 314.41 49.768C315.178 49.768 315.658 50.088 315.85 50.728C316.106 51.368 316.234 51.912 316.234 52.36C316.234 54.024 316.074 55.528 315.754 56.872C315.434 58.152 315.274 59.72 315.274 61.576C315.274 62.92 315.37 64.168 315.562 65.32C315.818 66.408 316.234 66.952 316.81 66.952C317.514 66.952 318.41 66.056 319.498 64.264C319.754 63.752 320.138 63.496 320.65 63.496C321.226 63.496 321.514 63.784 321.514 64.36C321.514 65.192 320.938 66.088 319.786 67.048C318.634 67.944 317.482 68.392 316.33 68.392C314.794 68.392 313.706 67.752 313.066 66.472C311.978 64.36 311.434 62.472 311.434 60.808C311.434 59.08 311.402 57.896 311.338 57.256C311.018 58.024 310.41 59.24 309.514 60.904C308.618 62.504 307.562 64.2 306.346 65.992C305.13 67.72 303.85 69.192 302.506 70.408C301.162 71.624 299.914 72.232 298.762 72.232ZM335.309 88.264C334.477 88.264 333.677 87.944 332.909 87.304C332.205 86.664 331.597 86.024 331.085 85.384C329.037 83.016 327.309 79.88 325.901 75.976C324.557 72.072 323.533 67.784 322.829 63.112C322.125 58.376 321.773 53.576 321.773 48.712C321.773 44.168 322.061 39.752 322.637 35.464C323.277 31.176 324.237 27.272 325.517 23.752C326.797 20.232 328.397 17.416 330.317 15.304C332.813 12.488 335.213 11.08 337.517 11.08C338.925 11.08 340.045 11.72 340.877 13C341.773 14.216 342.221 16.168 342.221 18.856C342.221 21.416 341.709 24.68 340.685 28.648C339.725 32.552 338.061 37.224 335.693 42.664C334.861 44.456 333.965 46.248 333.005 48.04C332.109 49.832 331.149 51.72 330.125 53.704C329.741 54.472 329.421 54.856 329.165 54.856C329.037 54.856 328.973 54.728 328.973 54.472C328.973 53.96 329.197 53.288 329.645 52.456C335.469 41.512 338.381 30.632 338.381 19.816C338.381 15.528 337.485 13.384 335.693 13.384C334.413 13.384 332.909 14.632 331.181 17.128C328.813 20.648 327.181 24.84 326.285 29.704C325.389 34.504 324.941 39.368 324.941 44.296C324.941 48.008 325.101 51.624 325.421 55.144C325.741 58.6 326.125 61.736 326.573 64.552C326.765 65.768 327.053 67.4 327.437 69.448C327.821 71.496 328.333 73.64 328.973 75.88C329.613 78.184 330.317 80.264 331.085 82.12C331.917 84.04 332.813 85.416 333.773 86.248C334.029 86.44 334.285 86.632 334.541 86.824C334.861 87.08 335.213 87.24 335.597 87.304C336.173 87.304 336.461 87.464 336.461 87.784C336.461 88.104 336.077 88.264 335.309 88.264Z" fill="black"/>
</svg>
